<?xml version="1.0" standalone="no"?>
<!DOCTYPE svg PUBLIC "-//W3C//DTD SVG 20010904//EN"
 "http://www.w3.org/TR/2001/REC-SVG-20010904/DTD/svg10.dtd">
<svg version="1.0" xmlns="http://www.w3.org/2000/svg"
 width="301.000000pt" height="301.000000pt" viewBox="0 0 301.000000 301.000000"
 preserveAspectRatio="xMidYMid meet">
<metadata>
Created by potrace 1.11, written by Peter Selinger 2001-2013
</metadata>
<g transform="translate(0.000000,301.000000) scale(0.100000,-0.100000)"
fill="#000000" stroke="none">
<path d="M2 1508 l3 -1503 1500 0 1500 0 0 1500 0 1500 -1503 3 -1502 2 2
-1502z m1088 12 l0 -710 -119 0 -119 0 -7 32 c-14 71 -12 70 -68 27 -82 -62
-146 -82 -248 -77 -67 3 -97 10 -140 31 -112 54 -194 171 -225 319 -24 110
-15 301 18 390 47 127 118 212 218 263 131 67 256 54 385 -40 20 -14 20 -13
17 230 l-4 245 146 0 146 0 0 -710z m602 428 l3 -133 118 -3 117 -3 0 -114 0
-114 -117 -3 -118 -3 0 -230 c0 -201 2 -234 18 -262 30 -56 96 -76 174 -54
l31 9 16 -71 c33 -146 34 -144 -10 -157 -69 -21 -243 -24 -305 -6 -98 28 -167
96 -201 198 -7 19 -14 145 -17 303 l-6 270 -67 3 -68 3 0 108 0 108 46 7 c26
3 60 6 75 6 33 0 32 -1 49 135 18 151 2 135 140 135 l119 0 3 -132z m961 -123
c64 -13 162 -60 185 -88 7 -9 -5 -33 -45 -87 -30 -41 -61 -83 -68 -93 -11 -16
-15 -16 -61 10 -60 34 -130 36 -189 5 -91 -46 -130 -125 -130 -263 0 -86 3
-101 30 -154 42 -81 94 -118 178 -123 55 -4 69 0 128 30 l66 35 57 -96 58 -95
-29 -23 c-38 -32 -103 -62 -166 -79 -69 -18 -208 -18 -282 1 -160 42 -286 172
-330 340 -20 79 -20 255 1 326 51 172 174 295 344 343 102 28 161 31 253 11z"/>
<path d="M531 1544 c-32 -32 -53 -64 -62 -94 -17 -57 -17 -232 0 -285 39 -119
141 -166 248 -114 80 39 83 49 83 278 l0 201 -41 27 c-33 22 -56 28 -111 31
l-69 4 -48 -48z"/>
</g>
</svg>
